<?xml version="1.0" standalone="no"?>
<!DOCTYPE svg PUBLIC "-//W3C//DTD SVG 20010904//EN"
 "http://www.w3.org/TR/2001/REC-SVG-20010904/DTD/svg10.dtd">
<svg version="1.0" xmlns="http://www.w3.org/2000/svg"
 width="1024.000000pt" height="1024.000000pt" viewBox="0 0 1024.000000 1024.000000"
 preserveAspectRatio="xMidYMid meet">
<metadata>
Created by potrace 1.11, written by Peter Selinger 2001-2013
</metadata>
<g transform="translate(0.000000,1024.000000) scale(0.100000,-0.100000)"
fill="#000000" stroke="none">
<path d="M2496 9808 c-156 -21 -296 -137 -340 -281 -22 -71 -24 -90 -25 -344
l-1 -223 -40 0 c-23 0 -76 -7 -118 -16 -313 -63 -548 -273 -655 -584 l-32 -95
-2 -3325 c-2 -3203 -2 -3328 16 -3405 70 -303 256 -515 556 -635 30 -12 104
-29 165 -38 58 -9 6177 -8 6220 1 254 50 454 183 585 387 65 101 100 193 124
320 3 19 6 1527 6 3350 0 2741 -2 3325 -13 3370 -21 83 -49 158 -89 230 -30
57 -55 90 -123 173 -8 10 -44 42 -80 72 -136 111 -297 177 -466 192 l-74 6 -1
221 c0 122 -2 230 -4 241 -2 11 -6 38 -10 60 -15 99 -96 211 -194 269 -129 75
-288 78 -426 9 -101 -51 -194 -175 -210 -279 -4 -22 -8 -48 -10 -59 -2 -11 -4
-120 -4 -242 l-1 -223 -2130 0 -2130 0 0 218 c0 119 -5 246 -10 282 -37 229
-248 381 -484 348z"/>
</g>
</svg>
